<mxfile host="Electron" modified="2024-04-25T03:07:20.542Z" agent="Mozilla/5.0 (X11; Linux x86_64) AppleWebKit/537.36 (KHTML, like Gecko) draw.io/24.2.5 Chrome/120.0.6099.109 Electron/28.1.0 Safari/537.36" etag="AgMt9ocj8EgmAbw84P_l" version="24.2.5" type="device">
  <diagram name="Page-1" id="yPQlsqrmwEttC6wRed7g">
    <mxGraphModel dx="1434" dy="835" grid="1" gridSize="10" guides="1" tooltips="1" connect="1" arrows="1" fold="1" page="1" pageScale="1" pageWidth="850" pageHeight="1100" math="0" shadow="0">
      <root>
        <mxCell id="0" />
        <mxCell id="1" parent="0" />
        <mxCell id="EMADu_DycPOGp0G8q7ta-109" style="edgeStyle=orthogonalEdgeStyle;rounded=1;orthogonalLoop=1;jettySize=auto;html=1;shadow=0;strokeColor=#264653;strokeWidth=2;fontFamily=Ubuntu;fontSize=22;fontColor=#264653;fontStyle=0;endArrow=none;endFill=0;fillColor=#264653;dashed=1;" edge="1" parent="1" source="EMADu_DycPOGp0G8q7ta-16" target="EMADu_DycPOGp0G8q7ta-33">
          <mxGeometry relative="1" as="geometry" />
        </mxCell>
        <mxCell id="EMADu_DycPOGp0G8q7ta-114" style="edgeStyle=orthogonalEdgeStyle;rounded=1;orthogonalLoop=1;jettySize=auto;html=1;shadow=0;strokeColor=#264653;strokeWidth=2;fontFamily=Ubuntu;fontSize=22;fontColor=#264653;fontStyle=0;endArrow=none;endFill=0;fillColor=#264653;dashed=1;" edge="1" parent="1" source="EMADu_DycPOGp0G8q7ta-17" target="EMADu_DycPOGp0G8q7ta-34">
          <mxGeometry relative="1" as="geometry" />
        </mxCell>
        <mxCell id="EMADu_DycPOGp0G8q7ta-107" style="edgeStyle=orthogonalEdgeStyle;rounded=1;orthogonalLoop=1;jettySize=auto;html=1;shadow=0;strokeColor=#264653;strokeWidth=2;fontFamily=Ubuntu;fontSize=22;fontColor=#264653;fontStyle=0;endArrow=none;endFill=0;fillColor=#264653;dashed=1;" edge="1" parent="1" source="EMADu_DycPOGp0G8q7ta-33" target="EMADu_DycPOGp0G8q7ta-50">
          <mxGeometry relative="1" as="geometry" />
        </mxCell>
        <mxCell id="EMADu_DycPOGp0G8q7ta-113" style="edgeStyle=orthogonalEdgeStyle;rounded=1;orthogonalLoop=1;jettySize=auto;html=1;shadow=0;strokeColor=#264653;strokeWidth=2;fontFamily=Ubuntu;fontSize=22;fontColor=#264653;fontStyle=0;endArrow=none;endFill=0;fillColor=#264653;dashed=1;" edge="1" parent="1" source="EMADu_DycPOGp0G8q7ta-34" target="EMADu_DycPOGp0G8q7ta-51">
          <mxGeometry relative="1" as="geometry" />
        </mxCell>
        <mxCell id="EMADu_DycPOGp0G8q7ta-108" style="edgeStyle=orthogonalEdgeStyle;rounded=1;orthogonalLoop=1;jettySize=auto;html=1;entryX=0.5;entryY=0;entryDx=0;entryDy=0;shadow=0;strokeColor=#264653;strokeWidth=2;fontFamily=Ubuntu;fontSize=22;fontColor=#264653;fontStyle=0;endArrow=none;endFill=0;fillColor=#264653;dashed=1;" edge="1" parent="1" source="EMADu_DycPOGp0G8q7ta-50" target="EMADu_DycPOGp0G8q7ta-67">
          <mxGeometry relative="1" as="geometry" />
        </mxCell>
        <mxCell id="EMADu_DycPOGp0G8q7ta-112" style="edgeStyle=orthogonalEdgeStyle;rounded=1;orthogonalLoop=1;jettySize=auto;html=1;shadow=0;strokeColor=#264653;strokeWidth=2;fontFamily=Ubuntu;fontSize=22;fontColor=#264653;fontStyle=0;endArrow=none;endFill=0;fillColor=#264653;dashed=1;" edge="1" parent="1" source="EMADu_DycPOGp0G8q7ta-51" target="EMADu_DycPOGp0G8q7ta-68">
          <mxGeometry relative="1" as="geometry" />
        </mxCell>
        <mxCell id="EMADu_DycPOGp0G8q7ta-110" style="edgeStyle=orthogonalEdgeStyle;rounded=1;orthogonalLoop=1;jettySize=auto;html=1;entryX=0.5;entryY=0;entryDx=0;entryDy=0;shadow=0;strokeColor=#264653;strokeWidth=2;fontFamily=Ubuntu;fontSize=22;fontColor=#264653;fontStyle=0;endArrow=block;endFill=1;fillColor=#264653;dashed=1;" edge="1" parent="1" source="EMADu_DycPOGp0G8q7ta-67" target="EMADu_DycPOGp0G8q7ta-84">
          <mxGeometry relative="1" as="geometry" />
        </mxCell>
        <mxCell id="EMADu_DycPOGp0G8q7ta-111" style="edgeStyle=orthogonalEdgeStyle;rounded=1;orthogonalLoop=1;jettySize=auto;html=1;entryX=0.5;entryY=0;entryDx=0;entryDy=0;shadow=0;strokeColor=#264653;strokeWidth=2;fontFamily=Ubuntu;fontSize=22;fontColor=#264653;fontStyle=0;endArrow=block;endFill=1;fillColor=#264653;dashed=1;" edge="1" parent="1" source="EMADu_DycPOGp0G8q7ta-68" target="EMADu_DycPOGp0G8q7ta-85">
          <mxGeometry relative="1" as="geometry" />
        </mxCell>
        <mxCell id="EMADu_DycPOGp0G8q7ta-70" value="" style="rounded=0;whiteSpace=wrap;html=1;shadow=0;strokeColor=#666666;strokeWidth=2;fontFamily=Ubuntu;fontSize=22;fontColor=#333333;fontStyle=0;fillColor=#f5f5f5;" vertex="1" parent="1">
          <mxGeometry x="210" y="500" width="40" height="40" as="geometry" />
        </mxCell>
        <mxCell id="EMADu_DycPOGp0G8q7ta-71" value="" style="rounded=0;whiteSpace=wrap;html=1;shadow=0;strokeColor=#666666;strokeWidth=2;fontFamily=Ubuntu;fontSize=22;fontColor=#333333;fontStyle=0;fillColor=#f5f5f5;" vertex="1" parent="1">
          <mxGeometry x="250" y="500" width="40" height="40" as="geometry" />
        </mxCell>
        <mxCell id="EMADu_DycPOGp0G8q7ta-72" value="" style="rounded=0;whiteSpace=wrap;html=1;shadow=0;strokeColor=#666666;strokeWidth=2;fontFamily=Ubuntu;fontSize=22;fontColor=#333333;fontStyle=0;fillColor=#f5f5f5;" vertex="1" parent="1">
          <mxGeometry x="290" y="500" width="40" height="40" as="geometry" />
        </mxCell>
        <mxCell id="EMADu_DycPOGp0G8q7ta-73" value="" style="rounded=0;whiteSpace=wrap;html=1;shadow=0;strokeColor=#666666;strokeWidth=2;fontFamily=Ubuntu;fontSize=22;fontColor=#333333;fontStyle=0;fillColor=#f5f5f5;" vertex="1" parent="1">
          <mxGeometry x="330" y="500" width="40" height="40" as="geometry" />
        </mxCell>
        <mxCell id="EMADu_DycPOGp0G8q7ta-74" value="" style="rounded=0;whiteSpace=wrap;html=1;shadow=0;strokeColor=#666666;strokeWidth=2;fontFamily=Ubuntu;fontSize=22;fontColor=#333333;fontStyle=0;fillColor=#f5f5f5;" vertex="1" parent="1">
          <mxGeometry x="370" y="500" width="40" height="40" as="geometry" />
        </mxCell>
        <mxCell id="EMADu_DycPOGp0G8q7ta-75" value="" style="rounded=0;whiteSpace=wrap;html=1;shadow=0;strokeColor=#666666;strokeWidth=2;fontFamily=Ubuntu;fontSize=22;fontColor=#333333;fontStyle=0;fillColor=#f5f5f5;" vertex="1" parent="1">
          <mxGeometry x="410" y="500" width="40" height="40" as="geometry" />
        </mxCell>
        <mxCell id="EMADu_DycPOGp0G8q7ta-76" value="" style="rounded=0;whiteSpace=wrap;html=1;shadow=0;strokeColor=#666666;strokeWidth=2;fontFamily=Ubuntu;fontSize=22;fontColor=#333333;fontStyle=0;fillColor=#f5f5f5;" vertex="1" parent="1">
          <mxGeometry x="450" y="500" width="40" height="40" as="geometry" />
        </mxCell>
        <mxCell id="EMADu_DycPOGp0G8q7ta-77" value="" style="rounded=0;whiteSpace=wrap;html=1;shadow=0;strokeColor=#666666;strokeWidth=2;fontFamily=Ubuntu;fontSize=22;fontColor=#333333;fontStyle=0;fillColor=#f5f5f5;" vertex="1" parent="1">
          <mxGeometry x="490" y="500" width="40" height="40" as="geometry" />
        </mxCell>
        <mxCell id="EMADu_DycPOGp0G8q7ta-78" value="" style="rounded=0;whiteSpace=wrap;html=1;shadow=0;strokeColor=#666666;strokeWidth=2;fontFamily=Ubuntu;fontSize=22;fontColor=#333333;fontStyle=0;fillColor=#f5f5f5;" vertex="1" parent="1">
          <mxGeometry x="530" y="500" width="40" height="40" as="geometry" />
        </mxCell>
        <mxCell id="EMADu_DycPOGp0G8q7ta-79" value="" style="rounded=0;whiteSpace=wrap;html=1;shadow=0;strokeColor=#666666;strokeWidth=2;fontFamily=Ubuntu;fontSize=22;fontColor=#333333;fontStyle=0;fillColor=#f5f5f5;" vertex="1" parent="1">
          <mxGeometry x="570" y="500" width="40" height="40" as="geometry" />
        </mxCell>
        <mxCell id="EMADu_DycPOGp0G8q7ta-80" value="" style="rounded=0;whiteSpace=wrap;html=1;shadow=0;strokeColor=#666666;strokeWidth=2;fontFamily=Ubuntu;fontSize=22;fontColor=#333333;fontStyle=0;fillColor=#f5f5f5;" vertex="1" parent="1">
          <mxGeometry x="610" y="500" width="40" height="40" as="geometry" />
        </mxCell>
        <mxCell id="EMADu_DycPOGp0G8q7ta-81" value="" style="rounded=0;whiteSpace=wrap;html=1;shadow=0;strokeColor=#666666;strokeWidth=2;fontFamily=Ubuntu;fontSize=22;fontColor=#333333;fontStyle=0;fillColor=#f5f5f5;" vertex="1" parent="1">
          <mxGeometry x="650" y="500" width="40" height="40" as="geometry" />
        </mxCell>
        <mxCell id="EMADu_DycPOGp0G8q7ta-82" value="" style="rounded=0;whiteSpace=wrap;html=1;shadow=0;strokeColor=#666666;strokeWidth=2;fontFamily=Ubuntu;fontSize=22;fontColor=#333333;fontStyle=0;fillColor=#f5f5f5;" vertex="1" parent="1">
          <mxGeometry x="690" y="500" width="40" height="40" as="geometry" />
        </mxCell>
        <mxCell id="EMADu_DycPOGp0G8q7ta-83" value="" style="rounded=0;whiteSpace=wrap;html=1;shadow=0;strokeColor=#666666;strokeWidth=2;fontFamily=Ubuntu;fontSize=22;fontColor=#333333;fontStyle=0;fillColor=#f5f5f5;" vertex="1" parent="1">
          <mxGeometry x="730" y="500" width="40" height="40" as="geometry" />
        </mxCell>
        <mxCell id="EMADu_DycPOGp0G8q7ta-103" style="edgeStyle=orthogonalEdgeStyle;rounded=1;orthogonalLoop=1;jettySize=auto;html=1;entryX=0.5;entryY=0;entryDx=0;entryDy=0;shadow=0;strokeColor=#264653;strokeWidth=2;fontFamily=Ubuntu;fontSize=22;fontColor=#264653;fontStyle=0;endArrow=block;endFill=1;fillColor=#264653;dashed=1;" edge="1" parent="1" source="EMADu_DycPOGp0G8q7ta-84" target="EMADu_DycPOGp0G8q7ta-101">
          <mxGeometry relative="1" as="geometry" />
        </mxCell>
        <mxCell id="EMADu_DycPOGp0G8q7ta-84" value="4" style="rounded=0;whiteSpace=wrap;html=1;shadow=0;strokeColor=#6c8ebf;strokeWidth=2;fontFamily=Ubuntu;fontSize=22;fontColor=#264653;fontStyle=0;fillColor=#dae8fc;" vertex="1" parent="1">
          <mxGeometry x="770" y="500" width="40" height="40" as="geometry" />
        </mxCell>
        <mxCell id="EMADu_DycPOGp0G8q7ta-104" style="edgeStyle=orthogonalEdgeStyle;rounded=1;orthogonalLoop=1;jettySize=auto;html=1;entryX=0.5;entryY=0;entryDx=0;entryDy=0;shadow=0;strokeColor=#264653;strokeWidth=2;fontFamily=Ubuntu;fontSize=22;fontColor=#264653;fontStyle=0;endArrow=block;endFill=1;fillColor=#264653;dashed=1;" edge="1" parent="1" source="EMADu_DycPOGp0G8q7ta-85" target="EMADu_DycPOGp0G8q7ta-102">
          <mxGeometry relative="1" as="geometry" />
        </mxCell>
        <mxCell id="EMADu_DycPOGp0G8q7ta-85" value="1" style="rounded=0;whiteSpace=wrap;html=1;shadow=0;strokeColor=#6c8ebf;strokeWidth=2;fontFamily=Ubuntu;fontSize=22;fontColor=#264653;fontStyle=0;fillColor=#dae8fc;" vertex="1" parent="1">
          <mxGeometry x="810" y="500" width="40" height="40" as="geometry" />
        </mxCell>
        <mxCell id="EMADu_DycPOGp0G8q7ta-86" value="" style="endArrow=none;html=1;rounded=1;shadow=0;strokeColor=#264653;strokeWidth=2;fontFamily=Ubuntu;fontSize=22;fontColor=#264653;fontStyle=0;fillColor=#264653;" edge="1" parent="1">
          <mxGeometry width="50" height="50" relative="1" as="geometry">
            <mxPoint x="180" y="470" as="sourcePoint" />
            <mxPoint x="860" y="469" as="targetPoint" />
          </mxGeometry>
        </mxCell>
        <mxCell id="EMADu_DycPOGp0G8q7ta-87" value="" style="rounded=0;whiteSpace=wrap;html=1;shadow=0;strokeColor=#666666;strokeWidth=2;fontFamily=Ubuntu;fontSize=22;fontColor=#333333;fontStyle=0;fillColor=#f5f5f5;" vertex="1" parent="1">
          <mxGeometry x="210" y="580" width="40" height="40" as="geometry" />
        </mxCell>
        <mxCell id="EMADu_DycPOGp0G8q7ta-88" value="" style="rounded=0;whiteSpace=wrap;html=1;shadow=0;strokeColor=#666666;strokeWidth=2;fontFamily=Ubuntu;fontSize=22;fontColor=#333333;fontStyle=0;fillColor=#f5f5f5;" vertex="1" parent="1">
          <mxGeometry x="250" y="580" width="40" height="40" as="geometry" />
        </mxCell>
        <mxCell id="EMADu_DycPOGp0G8q7ta-89" value="" style="rounded=0;whiteSpace=wrap;html=1;shadow=0;strokeColor=#666666;strokeWidth=2;fontFamily=Ubuntu;fontSize=22;fontColor=#333333;fontStyle=0;fillColor=#f5f5f5;" vertex="1" parent="1">
          <mxGeometry x="290" y="580" width="40" height="40" as="geometry" />
        </mxCell>
        <mxCell id="EMADu_DycPOGp0G8q7ta-90" value="" style="rounded=0;whiteSpace=wrap;html=1;shadow=0;strokeColor=#666666;strokeWidth=2;fontFamily=Ubuntu;fontSize=22;fontColor=#333333;fontStyle=0;fillColor=#f5f5f5;" vertex="1" parent="1">
          <mxGeometry x="330" y="580" width="40" height="40" as="geometry" />
        </mxCell>
        <mxCell id="EMADu_DycPOGp0G8q7ta-91" value="" style="rounded=0;whiteSpace=wrap;html=1;shadow=0;strokeColor=#666666;strokeWidth=2;fontFamily=Ubuntu;fontSize=22;fontColor=#333333;fontStyle=0;fillColor=#f5f5f5;" vertex="1" parent="1">
          <mxGeometry x="370" y="580" width="40" height="40" as="geometry" />
        </mxCell>
        <mxCell id="EMADu_DycPOGp0G8q7ta-92" value="" style="rounded=0;whiteSpace=wrap;html=1;shadow=0;strokeColor=#666666;strokeWidth=2;fontFamily=Ubuntu;fontSize=22;fontColor=#333333;fontStyle=0;fillColor=#f5f5f5;" vertex="1" parent="1">
          <mxGeometry x="410" y="580" width="40" height="40" as="geometry" />
        </mxCell>
        <mxCell id="EMADu_DycPOGp0G8q7ta-93" value="" style="rounded=0;whiteSpace=wrap;html=1;shadow=0;strokeColor=#666666;strokeWidth=2;fontFamily=Ubuntu;fontSize=22;fontColor=#333333;fontStyle=0;fillColor=#f5f5f5;" vertex="1" parent="1">
          <mxGeometry x="450" y="580" width="40" height="40" as="geometry" />
        </mxCell>
        <mxCell id="EMADu_DycPOGp0G8q7ta-94" value="" style="rounded=0;whiteSpace=wrap;html=1;shadow=0;strokeColor=#666666;strokeWidth=2;fontFamily=Ubuntu;fontSize=22;fontColor=#333333;fontStyle=0;fillColor=#f5f5f5;" vertex="1" parent="1">
          <mxGeometry x="490" y="580" width="40" height="40" as="geometry" />
        </mxCell>
        <mxCell id="EMADu_DycPOGp0G8q7ta-95" value="" style="rounded=0;whiteSpace=wrap;html=1;shadow=0;strokeColor=#666666;strokeWidth=2;fontFamily=Ubuntu;fontSize=22;fontColor=#333333;fontStyle=0;fillColor=#f5f5f5;" vertex="1" parent="1">
          <mxGeometry x="530" y="580" width="40" height="40" as="geometry" />
        </mxCell>
        <mxCell id="EMADu_DycPOGp0G8q7ta-96" value="" style="rounded=0;whiteSpace=wrap;html=1;shadow=0;strokeColor=#666666;strokeWidth=2;fontFamily=Ubuntu;fontSize=22;fontColor=#333333;fontStyle=0;fillColor=#f5f5f5;" vertex="1" parent="1">
          <mxGeometry x="570" y="580" width="40" height="40" as="geometry" />
        </mxCell>
        <mxCell id="EMADu_DycPOGp0G8q7ta-97" value="" style="rounded=0;whiteSpace=wrap;html=1;shadow=0;strokeColor=#666666;strokeWidth=2;fontFamily=Ubuntu;fontSize=22;fontColor=#333333;fontStyle=0;fillColor=#f5f5f5;" vertex="1" parent="1">
          <mxGeometry x="610" y="580" width="40" height="40" as="geometry" />
        </mxCell>
        <mxCell id="EMADu_DycPOGp0G8q7ta-98" value="" style="rounded=0;whiteSpace=wrap;html=1;shadow=0;strokeColor=#666666;strokeWidth=2;fontFamily=Ubuntu;fontSize=22;fontColor=#333333;fontStyle=0;fillColor=#f5f5f5;" vertex="1" parent="1">
          <mxGeometry x="650" y="580" width="40" height="40" as="geometry" />
        </mxCell>
        <mxCell id="EMADu_DycPOGp0G8q7ta-99" value="" style="rounded=0;whiteSpace=wrap;html=1;shadow=0;strokeColor=#666666;strokeWidth=2;fontFamily=Ubuntu;fontSize=22;fontColor=#333333;fontStyle=0;fillColor=#f5f5f5;" vertex="1" parent="1">
          <mxGeometry x="690" y="580" width="40" height="40" as="geometry" />
        </mxCell>
        <mxCell id="EMADu_DycPOGp0G8q7ta-100" value="" style="rounded=0;whiteSpace=wrap;html=1;shadow=0;strokeColor=#666666;strokeWidth=2;fontFamily=Ubuntu;fontSize=22;fontColor=#333333;fontStyle=0;fillColor=#f5f5f5;" vertex="1" parent="1">
          <mxGeometry x="730" y="580" width="40" height="40" as="geometry" />
        </mxCell>
        <mxCell id="EMADu_DycPOGp0G8q7ta-101" value="1" style="rounded=0;whiteSpace=wrap;html=1;shadow=0;strokeColor=#6c8ebf;strokeWidth=2;fontFamily=Ubuntu;fontSize=22;fontColor=#264653;fontStyle=0;fillColor=#dae8fc;" vertex="1" parent="1">
          <mxGeometry x="770" y="580" width="40" height="40" as="geometry" />
        </mxCell>
        <mxCell id="EMADu_DycPOGp0G8q7ta-102" value="1" style="rounded=0;whiteSpace=wrap;html=1;shadow=0;strokeColor=#6c8ebf;strokeWidth=2;fontFamily=Ubuntu;fontSize=22;fontColor=#264653;fontStyle=0;fillColor=#dae8fc;" vertex="1" parent="1">
          <mxGeometry x="810" y="580" width="40" height="40" as="geometry" />
        </mxCell>
        <mxCell id="EMADu_DycPOGp0G8q7ta-105" value="+" style="text;html=1;align=center;verticalAlign=middle;whiteSpace=wrap;rounded=0;fontFamily=Ubuntu;fontSize=22;fontColor=#264653;fontStyle=0;fillColor=#ffe6cc;strokeColor=#d79b00;" vertex="1" parent="1">
          <mxGeometry x="90" y="450" width="70" height="40" as="geometry" />
        </mxCell>
        <mxCell id="EMADu_DycPOGp0G8q7ta-115" value="" style="group" vertex="1" connectable="0" parent="1">
          <mxGeometry x="150" y="168" width="700" height="40" as="geometry" />
        </mxCell>
        <mxCell id="EMADu_DycPOGp0G8q7ta-1" value="" style="rounded=0;whiteSpace=wrap;html=1;shadow=0;strokeColor=#666666;strokeWidth=2;fontFamily=Ubuntu;fontSize=22;fontColor=#333333;fontStyle=0;fillColor=#f5f5f5;" vertex="1" parent="EMADu_DycPOGp0G8q7ta-115">
          <mxGeometry x="60" width="40" height="40" as="geometry" />
        </mxCell>
        <mxCell id="EMADu_DycPOGp0G8q7ta-2" value="" style="rounded=0;whiteSpace=wrap;html=1;shadow=0;strokeColor=#666666;strokeWidth=2;fontFamily=Ubuntu;fontSize=22;fontColor=#333333;fontStyle=0;fillColor=#f5f5f5;" vertex="1" parent="EMADu_DycPOGp0G8q7ta-115">
          <mxGeometry x="100" width="40" height="40" as="geometry" />
        </mxCell>
        <mxCell id="EMADu_DycPOGp0G8q7ta-4" value="" style="rounded=0;whiteSpace=wrap;html=1;shadow=0;strokeColor=#666666;strokeWidth=2;fontFamily=Ubuntu;fontSize=22;fontColor=#333333;fontStyle=0;fillColor=#f5f5f5;" vertex="1" parent="EMADu_DycPOGp0G8q7ta-115">
          <mxGeometry x="140" width="40" height="40" as="geometry" />
        </mxCell>
        <mxCell id="EMADu_DycPOGp0G8q7ta-5" value="" style="rounded=0;whiteSpace=wrap;html=1;shadow=0;strokeColor=#666666;strokeWidth=2;fontFamily=Ubuntu;fontSize=22;fontColor=#333333;fontStyle=0;fillColor=#f5f5f5;" vertex="1" parent="EMADu_DycPOGp0G8q7ta-115">
          <mxGeometry x="180" width="40" height="40" as="geometry" />
        </mxCell>
        <mxCell id="EMADu_DycPOGp0G8q7ta-6" value="" style="rounded=0;whiteSpace=wrap;html=1;shadow=0;strokeColor=#666666;strokeWidth=2;fontFamily=Ubuntu;fontSize=22;fontColor=#333333;fontStyle=0;fillColor=#f5f5f5;" vertex="1" parent="EMADu_DycPOGp0G8q7ta-115">
          <mxGeometry x="220" width="40" height="40" as="geometry" />
        </mxCell>
        <mxCell id="EMADu_DycPOGp0G8q7ta-7" value="" style="rounded=0;whiteSpace=wrap;html=1;shadow=0;strokeColor=#666666;strokeWidth=2;fontFamily=Ubuntu;fontSize=22;fontColor=#333333;fontStyle=0;fillColor=#f5f5f5;" vertex="1" parent="EMADu_DycPOGp0G8q7ta-115">
          <mxGeometry x="260" width="40" height="40" as="geometry" />
        </mxCell>
        <mxCell id="EMADu_DycPOGp0G8q7ta-8" value="" style="rounded=0;whiteSpace=wrap;html=1;shadow=0;strokeColor=#666666;strokeWidth=2;fontFamily=Ubuntu;fontSize=22;fontColor=#333333;fontStyle=0;fillColor=#f5f5f5;" vertex="1" parent="EMADu_DycPOGp0G8q7ta-115">
          <mxGeometry x="300" width="40" height="40" as="geometry" />
        </mxCell>
        <mxCell id="EMADu_DycPOGp0G8q7ta-9" value="" style="rounded=0;whiteSpace=wrap;html=1;shadow=0;strokeColor=#666666;strokeWidth=2;fontFamily=Ubuntu;fontSize=22;fontColor=#333333;fontStyle=0;fillColor=#f5f5f5;" vertex="1" parent="EMADu_DycPOGp0G8q7ta-115">
          <mxGeometry x="340" width="40" height="40" as="geometry" />
        </mxCell>
        <mxCell id="EMADu_DycPOGp0G8q7ta-10" value="" style="rounded=0;whiteSpace=wrap;html=1;shadow=0;strokeColor=#666666;strokeWidth=2;fontFamily=Ubuntu;fontSize=22;fontColor=#333333;fontStyle=0;fillColor=#f5f5f5;" vertex="1" parent="EMADu_DycPOGp0G8q7ta-115">
          <mxGeometry x="380" width="40" height="40" as="geometry" />
        </mxCell>
        <mxCell id="EMADu_DycPOGp0G8q7ta-11" value="" style="rounded=0;whiteSpace=wrap;html=1;shadow=0;strokeColor=#666666;strokeWidth=2;fontFamily=Ubuntu;fontSize=22;fontColor=#333333;fontStyle=0;fillColor=#f5f5f5;" vertex="1" parent="EMADu_DycPOGp0G8q7ta-115">
          <mxGeometry x="420" width="40" height="40" as="geometry" />
        </mxCell>
        <mxCell id="EMADu_DycPOGp0G8q7ta-12" value="" style="rounded=0;whiteSpace=wrap;html=1;shadow=0;strokeColor=#666666;strokeWidth=2;fontFamily=Ubuntu;fontSize=22;fontColor=#333333;fontStyle=0;fillColor=#f5f5f5;" vertex="1" parent="EMADu_DycPOGp0G8q7ta-115">
          <mxGeometry x="460" width="40" height="40" as="geometry" />
        </mxCell>
        <mxCell id="EMADu_DycPOGp0G8q7ta-13" value="" style="rounded=0;whiteSpace=wrap;html=1;shadow=0;strokeColor=#666666;strokeWidth=2;fontFamily=Ubuntu;fontSize=22;fontColor=#333333;fontStyle=0;fillColor=#f5f5f5;" vertex="1" parent="EMADu_DycPOGp0G8q7ta-115">
          <mxGeometry x="500" width="40" height="40" as="geometry" />
        </mxCell>
        <mxCell id="EMADu_DycPOGp0G8q7ta-14" value="" style="rounded=0;whiteSpace=wrap;html=1;shadow=0;strokeColor=#666666;strokeWidth=2;fontFamily=Ubuntu;fontSize=22;fontColor=#333333;fontStyle=0;fillColor=#f5f5f5;" vertex="1" parent="EMADu_DycPOGp0G8q7ta-115">
          <mxGeometry x="540" width="40" height="40" as="geometry" />
        </mxCell>
        <mxCell id="EMADu_DycPOGp0G8q7ta-15" value="" style="rounded=0;whiteSpace=wrap;html=1;shadow=0;strokeColor=#666666;strokeWidth=2;fontFamily=Ubuntu;fontSize=22;fontColor=#333333;fontStyle=0;fillColor=#f5f5f5;" vertex="1" parent="EMADu_DycPOGp0G8q7ta-115">
          <mxGeometry x="580" width="40" height="40" as="geometry" />
        </mxCell>
        <mxCell id="EMADu_DycPOGp0G8q7ta-16" value="1" style="rounded=0;whiteSpace=wrap;html=1;shadow=0;strokeColor=#6c8ebf;strokeWidth=2;fontFamily=Ubuntu;fontSize=22;fontColor=#264653;fontStyle=0;fillColor=#dae8fc;" vertex="1" parent="EMADu_DycPOGp0G8q7ta-115">
          <mxGeometry x="620" width="40" height="40" as="geometry" />
        </mxCell>
        <mxCell id="EMADu_DycPOGp0G8q7ta-17" value="" style="rounded=0;whiteSpace=wrap;html=1;shadow=0;strokeColor=#666666;strokeWidth=2;fontFamily=Ubuntu;fontSize=22;fontColor=#333333;fontStyle=0;fillColor=#f5f5f5;" vertex="1" parent="EMADu_DycPOGp0G8q7ta-115">
          <mxGeometry x="660" width="40" height="40" as="geometry" />
        </mxCell>
        <mxCell id="EMADu_DycPOGp0G8q7ta-18" value="2" style="text;html=1;align=center;verticalAlign=middle;whiteSpace=wrap;rounded=0;fontFamily=Ubuntu;fontSize=22;fontColor=#264653;fontStyle=0;" vertex="1" parent="EMADu_DycPOGp0G8q7ta-115">
          <mxGeometry y="5" width="60" height="30" as="geometry" />
        </mxCell>
        <mxCell id="EMADu_DycPOGp0G8q7ta-116" value="" style="group" vertex="1" connectable="0" parent="1">
          <mxGeometry x="150" y="245" width="700" height="40" as="geometry" />
        </mxCell>
        <mxCell id="EMADu_DycPOGp0G8q7ta-19" value="" style="rounded=0;whiteSpace=wrap;html=1;shadow=0;strokeColor=#666666;strokeWidth=2;fontFamily=Ubuntu;fontSize=22;fontColor=#333333;fontStyle=0;fillColor=#f5f5f5;" vertex="1" parent="EMADu_DycPOGp0G8q7ta-116">
          <mxGeometry x="60" width="40" height="40" as="geometry" />
        </mxCell>
        <mxCell id="EMADu_DycPOGp0G8q7ta-20" value="" style="rounded=0;whiteSpace=wrap;html=1;shadow=0;strokeColor=#666666;strokeWidth=2;fontFamily=Ubuntu;fontSize=22;fontColor=#333333;fontStyle=0;fillColor=#f5f5f5;" vertex="1" parent="EMADu_DycPOGp0G8q7ta-116">
          <mxGeometry x="100" width="40" height="40" as="geometry" />
        </mxCell>
        <mxCell id="EMADu_DycPOGp0G8q7ta-21" value="" style="rounded=0;whiteSpace=wrap;html=1;shadow=0;strokeColor=#666666;strokeWidth=2;fontFamily=Ubuntu;fontSize=22;fontColor=#333333;fontStyle=0;fillColor=#f5f5f5;" vertex="1" parent="EMADu_DycPOGp0G8q7ta-116">
          <mxGeometry x="140" width="40" height="40" as="geometry" />
        </mxCell>
        <mxCell id="EMADu_DycPOGp0G8q7ta-22" value="" style="rounded=0;whiteSpace=wrap;html=1;shadow=0;strokeColor=#666666;strokeWidth=2;fontFamily=Ubuntu;fontSize=22;fontColor=#333333;fontStyle=0;fillColor=#f5f5f5;" vertex="1" parent="EMADu_DycPOGp0G8q7ta-116">
          <mxGeometry x="180" width="40" height="40" as="geometry" />
        </mxCell>
        <mxCell id="EMADu_DycPOGp0G8q7ta-23" value="" style="rounded=0;whiteSpace=wrap;html=1;shadow=0;strokeColor=#666666;strokeWidth=2;fontFamily=Ubuntu;fontSize=22;fontColor=#333333;fontStyle=0;fillColor=#f5f5f5;" vertex="1" parent="EMADu_DycPOGp0G8q7ta-116">
          <mxGeometry x="220" width="40" height="40" as="geometry" />
        </mxCell>
        <mxCell id="EMADu_DycPOGp0G8q7ta-24" value="" style="rounded=0;whiteSpace=wrap;html=1;shadow=0;strokeColor=#666666;strokeWidth=2;fontFamily=Ubuntu;fontSize=22;fontColor=#333333;fontStyle=0;fillColor=#f5f5f5;" vertex="1" parent="EMADu_DycPOGp0G8q7ta-116">
          <mxGeometry x="260" width="40" height="40" as="geometry" />
        </mxCell>
        <mxCell id="EMADu_DycPOGp0G8q7ta-25" value="" style="rounded=0;whiteSpace=wrap;html=1;shadow=0;strokeColor=#666666;strokeWidth=2;fontFamily=Ubuntu;fontSize=22;fontColor=#333333;fontStyle=0;fillColor=#f5f5f5;" vertex="1" parent="EMADu_DycPOGp0G8q7ta-116">
          <mxGeometry x="300" width="40" height="40" as="geometry" />
        </mxCell>
        <mxCell id="EMADu_DycPOGp0G8q7ta-26" value="" style="rounded=0;whiteSpace=wrap;html=1;shadow=0;strokeColor=#666666;strokeWidth=2;fontFamily=Ubuntu;fontSize=22;fontColor=#333333;fontStyle=0;fillColor=#f5f5f5;" vertex="1" parent="EMADu_DycPOGp0G8q7ta-116">
          <mxGeometry x="340" width="40" height="40" as="geometry" />
        </mxCell>
        <mxCell id="EMADu_DycPOGp0G8q7ta-27" value="" style="rounded=0;whiteSpace=wrap;html=1;shadow=0;strokeColor=#666666;strokeWidth=2;fontFamily=Ubuntu;fontSize=22;fontColor=#333333;fontStyle=0;fillColor=#f5f5f5;" vertex="1" parent="EMADu_DycPOGp0G8q7ta-116">
          <mxGeometry x="380" width="40" height="40" as="geometry" />
        </mxCell>
        <mxCell id="EMADu_DycPOGp0G8q7ta-28" value="" style="rounded=0;whiteSpace=wrap;html=1;shadow=0;strokeColor=#666666;strokeWidth=2;fontFamily=Ubuntu;fontSize=22;fontColor=#333333;fontStyle=0;fillColor=#f5f5f5;" vertex="1" parent="EMADu_DycPOGp0G8q7ta-116">
          <mxGeometry x="420" width="40" height="40" as="geometry" />
        </mxCell>
        <mxCell id="EMADu_DycPOGp0G8q7ta-29" value="" style="rounded=0;whiteSpace=wrap;html=1;shadow=0;strokeColor=#666666;strokeWidth=2;fontFamily=Ubuntu;fontSize=22;fontColor=#333333;fontStyle=0;fillColor=#f5f5f5;" vertex="1" parent="EMADu_DycPOGp0G8q7ta-116">
          <mxGeometry x="460" width="40" height="40" as="geometry" />
        </mxCell>
        <mxCell id="EMADu_DycPOGp0G8q7ta-30" value="" style="rounded=0;whiteSpace=wrap;html=1;shadow=0;strokeColor=#666666;strokeWidth=2;fontFamily=Ubuntu;fontSize=22;fontColor=#333333;fontStyle=0;fillColor=#f5f5f5;" vertex="1" parent="EMADu_DycPOGp0G8q7ta-116">
          <mxGeometry x="500" width="40" height="40" as="geometry" />
        </mxCell>
        <mxCell id="EMADu_DycPOGp0G8q7ta-31" value="" style="rounded=0;whiteSpace=wrap;html=1;shadow=0;strokeColor=#666666;strokeWidth=2;fontFamily=Ubuntu;fontSize=22;fontColor=#333333;fontStyle=0;fillColor=#f5f5f5;" vertex="1" parent="EMADu_DycPOGp0G8q7ta-116">
          <mxGeometry x="540" width="40" height="40" as="geometry" />
        </mxCell>
        <mxCell id="EMADu_DycPOGp0G8q7ta-32" value="" style="rounded=0;whiteSpace=wrap;html=1;shadow=0;strokeColor=#666666;strokeWidth=2;fontFamily=Ubuntu;fontSize=22;fontColor=#333333;fontStyle=0;fillColor=#f5f5f5;" vertex="1" parent="EMADu_DycPOGp0G8q7ta-116">
          <mxGeometry x="580" width="40" height="40" as="geometry" />
        </mxCell>
        <mxCell id="EMADu_DycPOGp0G8q7ta-33" value="1" style="rounded=0;whiteSpace=wrap;html=1;shadow=0;strokeColor=#6c8ebf;strokeWidth=2;fontFamily=Ubuntu;fontSize=22;fontColor=#264653;fontStyle=0;fillColor=#dae8fc;" vertex="1" parent="EMADu_DycPOGp0G8q7ta-116">
          <mxGeometry x="620" width="40" height="40" as="geometry" />
        </mxCell>
        <mxCell id="EMADu_DycPOGp0G8q7ta-34" value="" style="rounded=0;whiteSpace=wrap;html=1;shadow=0;strokeColor=#666666;strokeWidth=2;fontFamily=Ubuntu;fontSize=22;fontColor=#333333;fontStyle=0;fillColor=#f5f5f5;" vertex="1" parent="EMADu_DycPOGp0G8q7ta-116">
          <mxGeometry x="660" width="40" height="40" as="geometry" />
        </mxCell>
        <mxCell id="EMADu_DycPOGp0G8q7ta-35" value="2" style="text;html=1;align=center;verticalAlign=middle;whiteSpace=wrap;rounded=0;fontFamily=Ubuntu;fontSize=22;fontColor=#264653;fontStyle=0;" vertex="1" parent="EMADu_DycPOGp0G8q7ta-116">
          <mxGeometry y="5" width="60" height="30" as="geometry" />
        </mxCell>
        <mxCell id="EMADu_DycPOGp0G8q7ta-117" value="" style="group" vertex="1" connectable="0" parent="1">
          <mxGeometry x="150" y="322" width="700" height="40" as="geometry" />
        </mxCell>
        <mxCell id="EMADu_DycPOGp0G8q7ta-36" value="" style="rounded=0;whiteSpace=wrap;html=1;shadow=0;strokeColor=#666666;strokeWidth=2;fontFamily=Ubuntu;fontSize=22;fontColor=#333333;fontStyle=0;fillColor=#f5f5f5;" vertex="1" parent="EMADu_DycPOGp0G8q7ta-117">
          <mxGeometry x="60" width="40" height="40" as="geometry" />
        </mxCell>
        <mxCell id="EMADu_DycPOGp0G8q7ta-37" value="" style="rounded=0;whiteSpace=wrap;html=1;shadow=0;strokeColor=#666666;strokeWidth=2;fontFamily=Ubuntu;fontSize=22;fontColor=#333333;fontStyle=0;fillColor=#f5f5f5;" vertex="1" parent="EMADu_DycPOGp0G8q7ta-117">
          <mxGeometry x="100" width="40" height="40" as="geometry" />
        </mxCell>
        <mxCell id="EMADu_DycPOGp0G8q7ta-38" value="" style="rounded=0;whiteSpace=wrap;html=1;shadow=0;strokeColor=#666666;strokeWidth=2;fontFamily=Ubuntu;fontSize=22;fontColor=#333333;fontStyle=0;fillColor=#f5f5f5;" vertex="1" parent="EMADu_DycPOGp0G8q7ta-117">
          <mxGeometry x="140" width="40" height="40" as="geometry" />
        </mxCell>
        <mxCell id="EMADu_DycPOGp0G8q7ta-39" value="" style="rounded=0;whiteSpace=wrap;html=1;shadow=0;strokeColor=#666666;strokeWidth=2;fontFamily=Ubuntu;fontSize=22;fontColor=#333333;fontStyle=0;fillColor=#f5f5f5;" vertex="1" parent="EMADu_DycPOGp0G8q7ta-117">
          <mxGeometry x="180" width="40" height="40" as="geometry" />
        </mxCell>
        <mxCell id="EMADu_DycPOGp0G8q7ta-40" value="" style="rounded=0;whiteSpace=wrap;html=1;shadow=0;strokeColor=#666666;strokeWidth=2;fontFamily=Ubuntu;fontSize=22;fontColor=#333333;fontStyle=0;fillColor=#f5f5f5;" vertex="1" parent="EMADu_DycPOGp0G8q7ta-117">
          <mxGeometry x="220" width="40" height="40" as="geometry" />
        </mxCell>
        <mxCell id="EMADu_DycPOGp0G8q7ta-41" value="" style="rounded=0;whiteSpace=wrap;html=1;shadow=0;strokeColor=#666666;strokeWidth=2;fontFamily=Ubuntu;fontSize=22;fontColor=#333333;fontStyle=0;fillColor=#f5f5f5;" vertex="1" parent="EMADu_DycPOGp0G8q7ta-117">
          <mxGeometry x="260" width="40" height="40" as="geometry" />
        </mxCell>
        <mxCell id="EMADu_DycPOGp0G8q7ta-42" value="" style="rounded=0;whiteSpace=wrap;html=1;shadow=0;strokeColor=#666666;strokeWidth=2;fontFamily=Ubuntu;fontSize=22;fontColor=#333333;fontStyle=0;fillColor=#f5f5f5;" vertex="1" parent="EMADu_DycPOGp0G8q7ta-117">
          <mxGeometry x="300" width="40" height="40" as="geometry" />
        </mxCell>
        <mxCell id="EMADu_DycPOGp0G8q7ta-43" value="" style="rounded=0;whiteSpace=wrap;html=1;shadow=0;strokeColor=#666666;strokeWidth=2;fontFamily=Ubuntu;fontSize=22;fontColor=#333333;fontStyle=0;fillColor=#f5f5f5;" vertex="1" parent="EMADu_DycPOGp0G8q7ta-117">
          <mxGeometry x="340" width="40" height="40" as="geometry" />
        </mxCell>
        <mxCell id="EMADu_DycPOGp0G8q7ta-44" value="" style="rounded=0;whiteSpace=wrap;html=1;shadow=0;strokeColor=#666666;strokeWidth=2;fontFamily=Ubuntu;fontSize=22;fontColor=#333333;fontStyle=0;fillColor=#f5f5f5;" vertex="1" parent="EMADu_DycPOGp0G8q7ta-117">
          <mxGeometry x="380" width="40" height="40" as="geometry" />
        </mxCell>
        <mxCell id="EMADu_DycPOGp0G8q7ta-45" value="" style="rounded=0;whiteSpace=wrap;html=1;shadow=0;strokeColor=#666666;strokeWidth=2;fontFamily=Ubuntu;fontSize=22;fontColor=#333333;fontStyle=0;fillColor=#f5f5f5;" vertex="1" parent="EMADu_DycPOGp0G8q7ta-117">
          <mxGeometry x="420" width="40" height="40" as="geometry" />
        </mxCell>
        <mxCell id="EMADu_DycPOGp0G8q7ta-46" value="" style="rounded=0;whiteSpace=wrap;html=1;shadow=0;strokeColor=#666666;strokeWidth=2;fontFamily=Ubuntu;fontSize=22;fontColor=#333333;fontStyle=0;fillColor=#f5f5f5;" vertex="1" parent="EMADu_DycPOGp0G8q7ta-117">
          <mxGeometry x="460" width="40" height="40" as="geometry" />
        </mxCell>
        <mxCell id="EMADu_DycPOGp0G8q7ta-47" value="" style="rounded=0;whiteSpace=wrap;html=1;shadow=0;strokeColor=#666666;strokeWidth=2;fontFamily=Ubuntu;fontSize=22;fontColor=#333333;fontStyle=0;fillColor=#f5f5f5;" vertex="1" parent="EMADu_DycPOGp0G8q7ta-117">
          <mxGeometry x="500" width="40" height="40" as="geometry" />
        </mxCell>
        <mxCell id="EMADu_DycPOGp0G8q7ta-48" value="" style="rounded=0;whiteSpace=wrap;html=1;shadow=0;strokeColor=#666666;strokeWidth=2;fontFamily=Ubuntu;fontSize=22;fontColor=#333333;fontStyle=0;fillColor=#f5f5f5;" vertex="1" parent="EMADu_DycPOGp0G8q7ta-117">
          <mxGeometry x="540" width="40" height="40" as="geometry" />
        </mxCell>
        <mxCell id="EMADu_DycPOGp0G8q7ta-49" value="" style="rounded=0;whiteSpace=wrap;html=1;shadow=0;strokeColor=#666666;strokeWidth=2;fontFamily=Ubuntu;fontSize=22;fontColor=#333333;fontStyle=0;fillColor=#f5f5f5;" vertex="1" parent="EMADu_DycPOGp0G8q7ta-117">
          <mxGeometry x="580" width="40" height="40" as="geometry" />
        </mxCell>
        <mxCell id="EMADu_DycPOGp0G8q7ta-50" value="1" style="rounded=0;whiteSpace=wrap;html=1;shadow=0;strokeColor=#6c8ebf;strokeWidth=2;fontFamily=Ubuntu;fontSize=22;fontColor=#264653;fontStyle=0;fillColor=#dae8fc;" vertex="1" parent="EMADu_DycPOGp0G8q7ta-117">
          <mxGeometry x="620" width="40" height="40" as="geometry" />
        </mxCell>
        <mxCell id="EMADu_DycPOGp0G8q7ta-51" value="1" style="rounded=0;whiteSpace=wrap;html=1;shadow=0;strokeColor=#6c8ebf;strokeWidth=2;fontFamily=Ubuntu;fontSize=22;fontColor=#264653;fontStyle=0;fillColor=#dae8fc;" vertex="1" parent="EMADu_DycPOGp0G8q7ta-117">
          <mxGeometry x="660" width="40" height="40" as="geometry" />
        </mxCell>
        <mxCell id="EMADu_DycPOGp0G8q7ta-52" value="3" style="text;html=1;align=center;verticalAlign=middle;whiteSpace=wrap;rounded=0;fontFamily=Ubuntu;fontSize=22;fontColor=#264653;fontStyle=0;" vertex="1" parent="EMADu_DycPOGp0G8q7ta-117">
          <mxGeometry y="5" width="60" height="30" as="geometry" />
        </mxCell>
        <mxCell id="EMADu_DycPOGp0G8q7ta-118" value="" style="group" vertex="1" connectable="0" parent="1">
          <mxGeometry x="150" y="401" width="700" height="40" as="geometry" />
        </mxCell>
        <mxCell id="EMADu_DycPOGp0G8q7ta-53" value="" style="rounded=0;whiteSpace=wrap;html=1;shadow=0;strokeColor=#666666;strokeWidth=2;fontFamily=Ubuntu;fontSize=22;fontColor=#333333;fontStyle=0;fillColor=#f5f5f5;" vertex="1" parent="EMADu_DycPOGp0G8q7ta-118">
          <mxGeometry x="60" width="40" height="40" as="geometry" />
        </mxCell>
        <mxCell id="EMADu_DycPOGp0G8q7ta-54" value="" style="rounded=0;whiteSpace=wrap;html=1;shadow=0;strokeColor=#666666;strokeWidth=2;fontFamily=Ubuntu;fontSize=22;fontColor=#333333;fontStyle=0;fillColor=#f5f5f5;" vertex="1" parent="EMADu_DycPOGp0G8q7ta-118">
          <mxGeometry x="100" width="40" height="40" as="geometry" />
        </mxCell>
        <mxCell id="EMADu_DycPOGp0G8q7ta-55" value="" style="rounded=0;whiteSpace=wrap;html=1;shadow=0;strokeColor=#666666;strokeWidth=2;fontFamily=Ubuntu;fontSize=22;fontColor=#333333;fontStyle=0;fillColor=#f5f5f5;" vertex="1" parent="EMADu_DycPOGp0G8q7ta-118">
          <mxGeometry x="140" width="40" height="40" as="geometry" />
        </mxCell>
        <mxCell id="EMADu_DycPOGp0G8q7ta-56" value="" style="rounded=0;whiteSpace=wrap;html=1;shadow=0;strokeColor=#666666;strokeWidth=2;fontFamily=Ubuntu;fontSize=22;fontColor=#333333;fontStyle=0;fillColor=#f5f5f5;" vertex="1" parent="EMADu_DycPOGp0G8q7ta-118">
          <mxGeometry x="180" width="40" height="40" as="geometry" />
        </mxCell>
        <mxCell id="EMADu_DycPOGp0G8q7ta-57" value="" style="rounded=0;whiteSpace=wrap;html=1;shadow=0;strokeColor=#666666;strokeWidth=2;fontFamily=Ubuntu;fontSize=22;fontColor=#333333;fontStyle=0;fillColor=#f5f5f5;" vertex="1" parent="EMADu_DycPOGp0G8q7ta-118">
          <mxGeometry x="220" width="40" height="40" as="geometry" />
        </mxCell>
        <mxCell id="EMADu_DycPOGp0G8q7ta-58" value="" style="rounded=0;whiteSpace=wrap;html=1;shadow=0;strokeColor=#666666;strokeWidth=2;fontFamily=Ubuntu;fontSize=22;fontColor=#333333;fontStyle=0;fillColor=#f5f5f5;" vertex="1" parent="EMADu_DycPOGp0G8q7ta-118">
          <mxGeometry x="260" width="40" height="40" as="geometry" />
        </mxCell>
        <mxCell id="EMADu_DycPOGp0G8q7ta-59" value="" style="rounded=0;whiteSpace=wrap;html=1;shadow=0;strokeColor=#666666;strokeWidth=2;fontFamily=Ubuntu;fontSize=22;fontColor=#333333;fontStyle=0;fillColor=#f5f5f5;" vertex="1" parent="EMADu_DycPOGp0G8q7ta-118">
          <mxGeometry x="300" width="40" height="40" as="geometry" />
        </mxCell>
        <mxCell id="EMADu_DycPOGp0G8q7ta-60" value="" style="rounded=0;whiteSpace=wrap;html=1;shadow=0;strokeColor=#666666;strokeWidth=2;fontFamily=Ubuntu;fontSize=22;fontColor=#333333;fontStyle=0;fillColor=#f5f5f5;" vertex="1" parent="EMADu_DycPOGp0G8q7ta-118">
          <mxGeometry x="340" width="40" height="40" as="geometry" />
        </mxCell>
        <mxCell id="EMADu_DycPOGp0G8q7ta-61" value="" style="rounded=0;whiteSpace=wrap;html=1;shadow=0;strokeColor=#666666;strokeWidth=2;fontFamily=Ubuntu;fontSize=22;fontColor=#333333;fontStyle=0;fillColor=#f5f5f5;" vertex="1" parent="EMADu_DycPOGp0G8q7ta-118">
          <mxGeometry x="380" width="40" height="40" as="geometry" />
        </mxCell>
        <mxCell id="EMADu_DycPOGp0G8q7ta-62" value="" style="rounded=0;whiteSpace=wrap;html=1;shadow=0;strokeColor=#666666;strokeWidth=2;fontFamily=Ubuntu;fontSize=22;fontColor=#333333;fontStyle=0;fillColor=#f5f5f5;" vertex="1" parent="EMADu_DycPOGp0G8q7ta-118">
          <mxGeometry x="420" width="40" height="40" as="geometry" />
        </mxCell>
        <mxCell id="EMADu_DycPOGp0G8q7ta-63" value="" style="rounded=0;whiteSpace=wrap;html=1;shadow=0;strokeColor=#666666;strokeWidth=2;fontFamily=Ubuntu;fontSize=22;fontColor=#333333;fontStyle=0;fillColor=#f5f5f5;" vertex="1" parent="EMADu_DycPOGp0G8q7ta-118">
          <mxGeometry x="460" width="40" height="40" as="geometry" />
        </mxCell>
        <mxCell id="EMADu_DycPOGp0G8q7ta-64" value="" style="rounded=0;whiteSpace=wrap;html=1;shadow=0;strokeColor=#666666;strokeWidth=2;fontFamily=Ubuntu;fontSize=22;fontColor=#333333;fontStyle=0;fillColor=#f5f5f5;" vertex="1" parent="EMADu_DycPOGp0G8q7ta-118">
          <mxGeometry x="500" width="40" height="40" as="geometry" />
        </mxCell>
        <mxCell id="EMADu_DycPOGp0G8q7ta-65" value="" style="rounded=0;whiteSpace=wrap;html=1;shadow=0;strokeColor=#666666;strokeWidth=2;fontFamily=Ubuntu;fontSize=22;fontColor=#333333;fontStyle=0;fillColor=#f5f5f5;" vertex="1" parent="EMADu_DycPOGp0G8q7ta-118">
          <mxGeometry x="540" width="40" height="40" as="geometry" />
        </mxCell>
        <mxCell id="EMADu_DycPOGp0G8q7ta-66" value="" style="rounded=0;whiteSpace=wrap;html=1;shadow=0;strokeColor=#666666;strokeWidth=2;fontFamily=Ubuntu;fontSize=22;fontColor=#333333;fontStyle=0;fillColor=#f5f5f5;" vertex="1" parent="EMADu_DycPOGp0G8q7ta-118">
          <mxGeometry x="580" width="40" height="40" as="geometry" />
        </mxCell>
        <mxCell id="EMADu_DycPOGp0G8q7ta-67" value="1" style="rounded=0;whiteSpace=wrap;html=1;shadow=0;strokeColor=#6c8ebf;strokeWidth=2;fontFamily=Ubuntu;fontSize=22;fontColor=#264653;fontStyle=0;fillColor=#dae8fc;" vertex="1" parent="EMADu_DycPOGp0G8q7ta-118">
          <mxGeometry x="620" width="40" height="40" as="geometry" />
        </mxCell>
        <mxCell id="EMADu_DycPOGp0G8q7ta-68" value="" style="rounded=0;whiteSpace=wrap;html=1;shadow=0;strokeColor=#666666;strokeWidth=2;fontFamily=Ubuntu;fontSize=22;fontColor=#333333;fontStyle=0;fillColor=#f5f5f5;" vertex="1" parent="EMADu_DycPOGp0G8q7ta-118">
          <mxGeometry x="660" width="40" height="40" as="geometry" />
        </mxCell>
        <mxCell id="EMADu_DycPOGp0G8q7ta-69" value="2" style="text;html=1;align=center;verticalAlign=middle;whiteSpace=wrap;rounded=0;fontFamily=Ubuntu;fontSize=22;fontColor=#264653;fontStyle=0;" vertex="1" parent="EMADu_DycPOGp0G8q7ta-118">
          <mxGeometry y="5" width="60" height="30" as="geometry" />
        </mxCell>
        <mxCell id="EMADu_DycPOGp0G8q7ta-120" value="%3" style="text;html=1;align=center;verticalAlign=middle;whiteSpace=wrap;rounded=0;fontFamily=Ubuntu;fontSize=22;fontColor=#264653;fontStyle=0;fillColor=#ffe6cc;strokeColor=#d79b00;" vertex="1" parent="1">
          <mxGeometry x="90" y="540" width="70" height="40" as="geometry" />
        </mxCell>
        <mxCell id="EMADu_DycPOGp0G8q7ta-121" value="" style="endArrow=classic;html=1;rounded=1;shadow=0;strokeColor=#264653;strokeWidth=2;fontFamily=Ubuntu;fontSize=22;fontColor=#264653;fontStyle=0;fillColor=#264653;dashed=1;" edge="1" parent="1">
          <mxGeometry width="50" height="50" relative="1" as="geometry">
            <mxPoint x="890" y="140" as="sourcePoint" />
            <mxPoint x="620" y="140" as="targetPoint" />
          </mxGeometry>
        </mxCell>
        <mxCell id="EMADu_DycPOGp0G8q7ta-123" value="" style="edgeLabel;html=1;align=center;verticalAlign=middle;resizable=0;points=[];rounded=1;shadow=0;strokeColor=#264653;strokeWidth=2;fontFamily=Ubuntu;fontSize=22;fontColor=#264653;fontStyle=0;fillColor=#2a9d8f;" vertex="1" connectable="0" parent="EMADu_DycPOGp0G8q7ta-121">
          <mxGeometry x="0.088" y="3" relative="1" as="geometry">
            <mxPoint as="offset" />
          </mxGeometry>
        </mxCell>
        <mxCell id="EMADu_DycPOGp0G8q7ta-122" value="" style="endArrow=classic;html=1;rounded=1;shadow=0;strokeColor=#264653;strokeWidth=2;fontFamily=Ubuntu;fontSize=22;fontColor=#264653;fontStyle=0;fillColor=#264653;dashed=1;" edge="1" parent="1">
          <mxGeometry width="50" height="50" relative="1" as="geometry">
            <mxPoint x="890" y="140" as="sourcePoint" />
            <mxPoint x="890" y="430" as="targetPoint" />
          </mxGeometry>
        </mxCell>
        <mxCell id="EMADu_DycPOGp0G8q7ta-126" value="" style="edgeLabel;html=1;align=center;verticalAlign=middle;resizable=0;points=[];rounded=1;shadow=0;strokeColor=#264653;strokeWidth=2;fontFamily=Ubuntu;fontSize=22;fontColor=#264653;fontStyle=0;fillColor=#2a9d8f;" vertex="1" connectable="0" parent="EMADu_DycPOGp0G8q7ta-122">
          <mxGeometry x="0.1241" y="-2" relative="1" as="geometry">
            <mxPoint as="offset" />
          </mxGeometry>
        </mxCell>
        <mxCell id="EMADu_DycPOGp0G8q7ta-124" value="遍历所有的比特位" style="text;html=1;align=center;verticalAlign=middle;whiteSpace=wrap;rounded=0;fontFamily=Ubuntu;fontSize=22;fontColor=#264653;fontStyle=0;" vertex="1" parent="1">
          <mxGeometry x="650" y="110" width="220" height="30" as="geometry" />
        </mxCell>
        <mxCell id="EMADu_DycPOGp0G8q7ta-125" value="遍历数组中所有的数" style="text;html=1;align=center;verticalAlign=middle;whiteSpace=wrap;rounded=0;fontFamily=Ubuntu;fontSize=22;fontColor=#264653;fontStyle=0;direction=south;" vertex="1" parent="1">
          <mxGeometry x="900" y="160" width="30" height="220" as="geometry" />
        </mxCell>
      </root>
    </mxGraphModel>
  </diagram>
</mxfile>
